<svg width="259" height="70" viewBox="0 0 259 70" fill="none" xmlns="http://www.w3.org/2000/svg">
<g clip-path="url(#clip0_765_395)">
<path d="M102.054 24.8945H105.01C106.041 23.5357 106.832 22.1111 107.382 20.6207C107.954 19.1084 108.367 17.5523 108.619 15.9524C108.894 14.3305 109.054 12.6648 109.1 10.9552C109.146 9.22379 109.169 7.4485 109.169 5.62938H123.776V24.8945H127.316V34.4942H123.157V28.4122H106.213V34.4942H102.054V24.8945ZM113.327 9.17996C113.259 10.495 113.179 11.8429 113.087 13.2237C112.995 14.6044 112.823 15.9743 112.571 17.3331C112.342 18.6701 112.01 19.9851 111.575 21.2782C111.139 22.5494 110.544 23.7549 109.787 24.8945H119.514V9.17996H113.327Z" fill="white"/>
<path d="M137.924 28.6752C136.664 28.6752 135.392 28.6314 134.109 28.5437C132.826 28.478 131.703 28.3246 130.741 28.0835V5.95814C131.245 5.87047 131.783 5.79376 132.356 5.72801C132.929 5.64034 133.513 5.57459 134.109 5.53075C134.705 5.48692 135.289 5.45404 135.862 5.43213C136.458 5.41021 137.019 5.39925 137.546 5.39925C138.99 5.39925 140.33 5.50884 141.567 5.72801C142.805 5.92526 143.87 6.26498 144.764 6.74715C145.68 7.22933 146.391 7.86493 146.895 8.65395C147.399 9.44296 147.651 10.4183 147.651 11.5799C147.651 12.6538 147.376 13.5743 146.826 14.3414C146.299 15.1085 145.554 15.7222 144.592 16.1825C146.035 16.6427 147.101 17.3222 147.788 18.2208C148.476 19.1194 148.819 20.2591 148.819 21.6398C148.819 23.985 147.926 25.7493 146.139 26.9328C144.351 28.0944 141.613 28.6752 137.924 28.6752ZM135.003 18.155V25.0918C135.484 25.1356 135.999 25.1685 136.549 25.1904C137.099 25.2123 137.603 25.2233 138.062 25.2233C138.955 25.2233 139.78 25.1685 140.536 25.0589C141.315 24.9493 141.98 24.763 142.53 24.5C143.103 24.2151 143.549 23.8425 143.87 23.3823C144.214 22.922 144.386 22.3302 144.386 21.607C144.386 20.3139 143.893 19.4153 142.908 18.9112C141.923 18.4071 140.559 18.155 138.818 18.155H135.003ZM135.003 14.9003H138.062C139.711 14.9003 141.006 14.6812 141.945 14.2428C142.885 13.7826 143.355 12.9716 143.355 11.81C143.355 10.7142 142.862 9.9361 141.877 9.47584C140.914 9.01558 139.654 8.78545 138.096 8.78545C137.432 8.78545 136.836 8.79641 136.309 8.81832C135.805 8.84024 135.369 8.87312 135.003 8.91695V14.9003Z" fill="white"/>
<path d="M169.14 28.4122C168.819 27.5136 168.487 26.626 168.143 25.7493C167.799 24.8726 167.467 23.974 167.146 23.0535H157.11C156.79 23.974 156.457 24.8836 156.114 25.7822C155.793 26.6589 155.472 27.5356 155.151 28.4122H150.649C151.542 25.9794 152.39 23.7329 153.192 21.6727C153.994 19.6125 154.773 17.6619 155.529 15.8208C156.308 13.9798 157.076 12.2264 157.832 10.5607C158.588 8.89503 159.367 7.25125 160.169 5.62938H164.259C165.061 7.25125 165.84 8.89503 166.596 10.5607C167.353 12.2264 168.109 13.9798 168.865 15.8208C169.644 17.6619 170.434 19.6125 171.236 21.6727C172.061 23.7329 172.92 25.9794 173.814 28.4122H169.14ZM162.128 10.0347C161.601 11.1963 160.994 12.61 160.307 14.2757C159.642 15.9414 158.943 17.7496 158.21 19.7002H166.046C165.313 17.7496 164.603 15.9304 163.916 14.2428C163.228 12.5552 162.632 11.1525 162.128 10.0347Z" fill="white"/>
<path d="M115.046 70C113.259 70 111.655 69.737 110.234 69.211C108.814 68.685 107.611 67.9179 106.625 66.9097C105.64 65.8796 104.884 64.6303 104.357 63.1619C103.83 61.6934 103.566 60.0058 103.566 58.099C103.566 56.1922 103.864 54.5046 104.46 53.0361C105.079 51.5677 105.915 50.3294 106.969 49.3212C108.023 48.2911 109.26 47.513 110.681 46.987C112.102 46.461 113.625 46.198 115.252 46.198C116.237 46.198 117.131 46.2747 117.933 46.4281C118.735 46.5596 119.434 46.713 120.03 46.8884C120.625 47.0637 121.118 47.25 121.508 47.4473C121.897 47.6445 122.172 47.787 122.332 47.8747L121.061 51.2609C120.511 50.9321 119.72 50.6253 118.689 50.3403C117.681 50.0335 116.581 49.8801 115.39 49.8801C114.359 49.8801 113.396 50.0554 112.503 50.4061C111.609 50.7348 110.83 51.2389 110.165 51.9184C109.524 52.5978 109.02 53.4526 108.653 54.4827C108.287 55.5128 108.103 56.7073 108.103 58.0661C108.103 59.2716 108.241 60.3784 108.516 61.3866C108.814 62.3948 109.26 63.2714 109.856 64.0166C110.452 64.7399 111.208 65.3097 112.125 65.7262C113.041 66.1207 114.141 66.3179 115.424 66.3179C116.959 66.3179 118.208 66.1755 119.17 65.8905C120.133 65.5837 120.877 65.2988 121.404 65.0358L122.573 68.422C122.298 68.5973 121.92 68.7726 121.439 68.948C120.981 69.1233 120.431 69.2987 119.789 69.474C119.147 69.6274 118.426 69.748 117.624 69.8356C116.822 69.9452 115.963 70 115.046 70Z" fill="white"/>
<path d="M126.378 69.5069V46.724H141.672V50.2417H130.708V55.8635H140.469V59.3154H130.708V65.9892H142.497V69.5069H126.378Z" fill="white"/>
<path d="M153.253 46.4939C156.712 46.4939 159.359 47.0966 161.192 48.302C163.048 49.5075 163.976 51.3924 163.976 53.9567C163.976 55.2936 163.724 56.4443 163.22 57.4086C162.739 58.3511 162.028 59.1291 161.089 59.7428C160.149 60.3346 159.004 60.7729 157.652 61.0578C156.3 61.3427 154.753 61.4852 153.012 61.4852H150.847V69.5069H146.516V47.0528C147.524 46.8336 148.636 46.6911 149.85 46.6254C151.087 46.5377 152.221 46.4939 153.253 46.4939ZM153.562 50.0773C152.462 50.0773 151.557 50.1102 150.847 50.176V57.9346H152.943C155.028 57.9346 156.632 57.6607 157.755 57.1127C158.878 56.5429 159.439 55.4799 159.439 53.9238C159.439 53.1786 159.29 52.554 158.992 52.0499C158.694 51.5458 158.282 51.1513 157.755 50.8663C157.228 50.5814 156.598 50.3842 155.865 50.2746C155.154 50.1431 154.387 50.0773 153.562 50.0773Z" fill="white"/>
<path d="M175.113 69.7699C173.853 69.7699 172.581 69.726 171.298 69.6384C170.015 69.5726 168.892 69.4192 167.93 69.1781V47.0528C168.434 46.9651 168.973 46.8884 169.545 46.8226C170.118 46.735 170.703 46.6692 171.298 46.6254C171.894 46.5815 172.478 46.5487 173.051 46.5268C173.647 46.5048 174.208 46.4939 174.735 46.4939C176.179 46.4939 177.519 46.6035 178.757 46.8226C179.994 47.0199 181.059 47.3596 181.953 47.8418C182.869 48.324 183.58 48.9596 184.084 49.7486C184.588 50.5376 184.84 51.5129 184.84 52.6745C184.84 53.7485 184.565 54.669 184.015 55.4361C183.488 56.2032 182.743 56.8169 181.781 57.2771C183.225 57.7374 184.29 58.4168 184.978 59.3154C185.665 60.214 186.009 61.3537 186.009 62.7345C186.009 65.0796 185.115 66.8439 183.328 68.0275C181.541 69.1891 178.802 69.7699 175.113 69.7699ZM172.192 59.2497V66.1864C172.673 66.2303 173.189 66.2631 173.739 66.2851C174.288 66.307 174.793 66.3179 175.251 66.3179C176.144 66.3179 176.969 66.2631 177.725 66.1536C178.505 66.044 179.169 65.8577 179.719 65.5947C180.292 65.3097 180.739 64.9372 181.059 64.4769C181.403 64.0166 181.575 63.4249 181.575 62.7016C181.575 61.4085 181.082 60.5099 180.097 60.0058C179.112 59.5017 177.748 59.2497 176.007 59.2497H172.192ZM172.192 55.995H175.251C176.901 55.995 178.195 55.7758 179.135 55.3374C180.074 54.8772 180.544 54.0662 180.544 52.9046C180.544 51.8088 180.051 51.0307 179.066 50.5705C178.104 50.1102 176.843 49.8801 175.285 49.8801C174.621 49.8801 174.025 49.891 173.498 49.913C172.994 49.9349 172.559 49.9677 172.192 50.0116V55.995Z" fill="white"/>
<path d="M190.519 69.5069V46.724H194.815V61.8468C195.594 60.6633 196.476 59.3921 197.462 58.0333C198.47 56.6525 199.501 55.2826 200.555 53.9238C201.632 52.5649 202.697 51.2609 203.751 50.0116C204.805 48.7404 205.79 47.6445 206.707 46.724H210.247V69.5069H205.985V53.2005C205.023 54.2964 204.003 55.5347 202.926 56.9155C201.872 58.2743 200.83 59.688 199.799 61.1564C198.768 62.603 197.771 64.0495 196.808 65.496C195.846 66.9207 194.975 68.2576 194.196 69.5069H190.519Z" fill="white"/>
<path d="M226.546 70C224.759 70 223.155 69.737 221.735 69.211C220.314 68.685 219.111 67.9179 218.126 66.9097C217.141 65.8796 216.384 64.6303 215.857 63.1619C215.33 61.6934 215.067 60.0058 215.067 58.099C215.067 56.1922 215.365 54.5046 215.961 53.0361C216.579 51.5677 217.416 50.3294 218.47 49.3212C219.524 48.2911 220.761 47.513 222.181 46.987C223.602 46.461 225.126 46.198 226.753 46.198C227.738 46.198 228.632 46.2747 229.433 46.4281C230.235 46.5596 230.934 46.713 231.53 46.8884C232.126 47.0637 232.618 47.25 233.008 47.4473C233.397 47.6445 233.672 47.787 233.833 47.8747L232.561 51.2609C232.011 50.9321 231.221 50.6253 230.19 50.3403C229.181 50.0335 228.082 49.8801 226.89 49.8801C225.859 49.8801 224.897 50.0554 224.003 50.4061C223.109 50.7348 222.33 51.2389 221.666 51.9184C221.024 52.5978 220.52 53.4526 220.154 54.4827C219.787 55.5128 219.604 56.7073 219.604 58.0661C219.604 59.2716 219.741 60.3784 220.016 61.3866C220.314 62.3948 220.761 63.2714 221.357 64.0166C221.952 64.7399 222.708 65.3097 223.625 65.7262C224.542 66.1207 225.641 66.3179 226.924 66.3179C228.46 66.3179 229.708 66.1755 230.671 65.8905C231.633 65.5837 232.378 65.2988 232.905 65.0358L234.073 68.422C233.798 68.5973 233.42 68.7726 232.939 68.948C232.481 69.1233 231.931 69.2987 231.289 69.474C230.648 69.6274 229.926 69.748 229.124 69.8356C228.322 69.9452 227.463 70 226.546 70Z" fill="white"/>
<path d="M254.326 69.5069C254.005 68.6083 253.673 67.7206 253.329 66.8439C252.985 65.9673 252.653 65.0687 252.332 64.1481H242.296C241.976 65.0687 241.643 65.9782 241.3 66.8768C240.979 67.7535 240.658 68.6302 240.337 69.5069H235.835C236.728 67.0741 237.576 64.8276 238.378 62.7674C239.18 60.7071 239.959 58.7565 240.715 56.9155C241.494 55.0744 242.262 53.3211 243.018 51.6554C243.774 49.9897 244.553 48.3459 245.355 46.724H249.445C250.247 48.3459 251.026 49.9897 251.782 51.6554C252.539 53.3211 253.295 55.0744 254.051 56.9155C254.83 58.7565 255.62 60.7071 256.422 62.7674C257.247 64.8276 258.106 67.0741 259 69.5069H254.326ZM247.314 51.1294C246.787 52.291 246.18 53.7046 245.493 55.3703C244.828 57.036 244.129 58.8442 243.396 60.7948H251.233C250.499 58.8442 249.789 57.0251 249.102 55.3374C248.414 53.6498 247.818 52.2471 247.314 51.1294Z" fill="white"/>
<path d="M19.5524 0L39.1048 16.1914H0L19.5524 0Z" fill="white"/>
<path d="M68.195 0L87.7474 16.1914H48.6426L68.195 0Z" fill="white"/>
<rect x="12" y="16.1914" width="15" height="53.3364" fill="white"/>
<rect x="60" y="16.1914" width="15" height="53.3364" fill="white"/>
</g>
<defs>
<clipPath id="clip0_765_395">
<rect width="259" height="70" fill="white"/>
</clipPath>
</defs>
</svg>
